HIERARCHY
ROOT Hips
{
	OFFSET 0.000000 0.000000 0.000000
	CHANNELS 6 Xposition Yposition Zposition Xrotation Yrotation Zrotation
	JOINT LeftUpLeg_virtual
	{
		OFFSET 0.000000 0.000000 0.000000
		CHANNELS 3 Xrotation Yrotation Zrotation
		JOINT LeftUpLeg
		{
			OFFSET 11.394100 -6.187798 -0.413800
			CHANNELS 3 Xrotation Yrotation Zrotation
			JOINT LeftLeg
			{
				OFFSET 0.430247 -32.302673 3.732800
				CHANNELS 3 Xrotation Yrotation Zrotation
				JOINT LeftFoot
				{
					OFFSET -0.430247 -48.264931 -6.423300
					CHANNELS 3 Xrotation Yrotation Zrotation
					JOINT LeftToeBase
					{
						OFFSET 4.230900 -16.068199 23.438400
						CHANNELS 3 Xrotation Yrotation Zrotation
						JOINT LeftToe_End
						{
							OFFSET 4.510700 0.695400 19.974600
							CHANNELS 3 Xrotation Yrotation Zrotation
							End Site
							{
								OFFSET 0 0 0
							}
						}
					}
				}
			}
		}
	}
	JOINT RightUpLeg_virtual
	{
		OFFSET 0.000000 0.000000 0.000000
		CHANNELS 3 Xrotation Yrotation Zrotation
		JOINT RightUpLeg
		{
			OFFSET -11.333700 -6.187798 -0.413800
			CHANNELS 3 Xrotation Yrotation Zrotation
			JOINT RightLeg
			{
				OFFSET -0.430392 -32.302628 3.733000
				CHANNELS 3 Xrotation Yrotation Zrotation
				JOINT RightFoot
				{
					OFFSET 0.430392 -48.264973 -6.423500
					CHANNELS 3 Xrotation Yrotation Zrotation
					JOINT RightToeBase
					{
						OFFSET -4.230900 -16.068199 23.438400
						CHANNELS 3 Xrotation Yrotation Zrotation
						JOINT RightToe_End
						{
							OFFSET -4.510700 0.695400 19.974600
							CHANNELS 3 Xrotation Yrotation Zrotation
							End Site
							{
								OFFSET 0 0 0
							}
						}
					}
				}
			}
		}
	}
	JOINT Spine_virtual
	{
		OFFSET 0.000000 0.000000 0.000000
		CHANNELS 3 Xrotation Yrotation Zrotation
		JOINT Spine
		{
			OFFSET -0.002400 12.777504 0.315300
			CHANNELS 3 Xrotation Yrotation Zrotation
			JOINT Spine1
			{
				OFFSET -0.002067 5.816869 0.032633
				CHANNELS 3 Xrotation Yrotation Zrotation
				JOINT Spine1_split
				{
					OFFSET -0.002067 5.816869 0.032633
					CHANNELS 3 Xrotation Yrotation Zrotation
					JOINT Spine2
					{
						OFFSET -0.002067 5.816869 0.032633
						CHANNELS 3 Xrotation Yrotation Zrotation
						JOINT Neck_virtual
						{
							OFFSET 0.000000 0.000000 0.000000
							CHANNELS 3 Xrotation Yrotation Zrotation
							JOINT Neck
							{
								OFFSET -0.003700 21.199493 -0.826900
								CHANNELS 3 Xrotation Yrotation Zrotation
								JOINT Head
								{
									OFFSET 0.000000 20.442200 4.834800
									CHANNELS 3 Xrotation Yrotation Zrotation
									JOINT HeadTop_End
									{
										OFFSET 0.000000 34.668396 4.968400
										CHANNELS 3 Xrotation Yrotation Zrotation
										End Site
										{
											OFFSET 0 0 0
										}
									}
								}
							}
						}
						JOINT LeftShoulder_virtual
						{
							OFFSET 0.000000 0.000000 0.000000
							CHANNELS 3 Xrotation Yrotation Zrotation
							JOINT LeftShoulder
							{
								OFFSET 3.288150 8.794197 -1.372250
								CHANNELS 3 Xrotation Yrotation Zrotation
								JOINT LeftShoulder_split
								{
									OFFSET 3.288150 8.794197 -1.372250
									CHANNELS 3 Xrotation Yrotation Zrotation
									JOINT LeftArm
									{
										OFFSET 11.953299 -2.279007 -0.146200
										CHANNELS 3 Xrotation Yrotation Zrotation
										JOINT LeftForeArm
										{
											OFFSET 18.448900 0.000000 0.000000
											CHANNELS 3 Xrotation Yrotation Zrotation
											JOINT LeftHand
											{
												OFFSET 29.527798 0.000000 0.000000
												CHANNELS 3 Xrotation Yrotation Zrotation
												End Site
												{
													OFFSET 0 0 0
												}
											}
										}
									}
								}
							}
						}
						JOINT RightShoulder_virtual
						{
							OFFSET 0.000000 0.000000 0.000000
							CHANNELS 3 Xrotation Yrotation Zrotation
							JOINT RightShoulder
							{
								OFFSET -3.249400 8.794197 -1.372250
								CHANNELS 3 Xrotation Yrotation Zrotation
								JOINT RightShoulder_split
								{
									OFFSET -3.249400 8.794197 -1.372250
									CHANNELS 3 Xrotation Yrotation Zrotation
									JOINT RightArm
									{
										OFFSET -11.953299 -2.279007 -0.146200
										CHANNELS 3 Xrotation Yrotation Zrotation
										JOINT RightForeArm
										{
											OFFSET -18.448900 0.000000 0.000000
											CHANNELS 3 Xrotation Yrotation Zrotation
											JOINT RightHand
											{
												OFFSET -29.527802 0.000000 0.000000
												CHANNELS 3 Xrotation Yrotation Zrotation
												End Site
												{
													OFFSET 0 0 0
												}
											}
										}
									}
								}
							}
						}
					}
				}
			}
		}
	}
}
MOTION
Frames: 9
Frame Time: 0.03333333
0.079225 82.588409 0.059017 0.000000 0.000000 0.000000 11.722970 3.044873 -1.283927 -64.693168 0.459454 5.436922 76.109925 7.859307 -0.592571 -22.192569 4.601120 -4.790943 -0.000003 -0.000003 -0.000001 0.000000 0.000000 0.000000 11.722970 3.044873 -1.283927 -62.274052 -13.478395 -7.971896 75.066894 -8.296319 -4.598895 -25.831849 -9.091571 3.264927 -0.000003 -0.000003 -0.000000 0.000000 0.000000 0.000000 11.722970 3.044873 -1.283927 9.927187 1.446870 1.195304 7.645332 0.753229 0.067568 0.000000 0.000000 0.000000 0.000000 0.000000 0.000000 7.636953 0.840686 0.048856 -11.425855 -1.903121 7.327010 -27.420395 2.052766 -6.271739 0.000000 0.000000 0.000000 7.636953 0.840686 0.048856 3.557351 -26.212553 4.772372 0.000000 0.000000 0.000000 -62.403265 -21.804182 -66.738994 -179.999978 -70.549557 -179.999978 0.000000 0.000000 0.000000 7.636953 0.840686 0.048856 1.209611 13.189590 10.689359 0.000000 0.000000 0.000000 -58.736799 43.251206 51.659839 -179.999896 73.628148 179.999868 0.000000 0.000000 0.000000 
0.085079 82.593201 0.067623 0.000000 0.000000 0.000000 11.766266 3.035198 -1.299734 -64.731076 0.429639 5.484574 76.116618 7.847723 -0.653465 -22.181786 4.611892 -4.768319 -0.000003 -0.000006 -0.000001 0.000000 0.000000 0.000000 11.766266 3.035198 -1.299734 -62.299207 -13.493451 -7.950415 75.045023 -8.310097 -4.613984 -25.825328 -9.088467 3.277302 -0.000003 -0.000003 -0.000000 0.000000 0.000000 0.000000 11.766266 3.035198 -1.299734 9.910030 1.466150 1.180202 7.633180 0.769257 0.058698 0.000000 0.000000 0.000000 0.000000 0.000000 0.000000 7.624624 0.856615 0.039882 -11.444190 -1.923865 7.361598 -27.436177 1.999900 -6.276383 0.000000 0.000000 0.000000 7.624624 0.856615 0.039882 3.557348 -26.212553 4.772371 0.000000 0.000000 0.000000 -62.439554 -21.913835 -66.819563 179.999964 -70.454207 179.999978 0.000000 0.000000 0.000000 7.624624 0.856615 0.039882 1.207726 13.175771 10.734721 0.000000 0.000000 0.000000 -58.706862 43.206120 51.589621 -179.999896 73.392760 179.999882 0.000000 0.000000 0.000000 
0.095217 82.593430 0.079834 0.000000 0.000000 0.000000 11.802075 3.020936 -1.327048 -64.771585 0.399809 5.533708 76.139629 7.827379 -0.706932 -22.173944 4.654595 -4.737680 -0.000003 -0.000006 -0.000001 0.000000 0.000000 0.000000 11.802075 3.020936 -1.327048 -62.315675 -13.516231 -7.933891 75.029444 -8.322369 -4.619657 -25.823284 -9.078130 3.290879 -0.000003 -0.000005 -0.000000 0.000000 0.000000 0.000000 11.802075 3.020936 -1.327048 9.892172 1.497064 1.168734 7.619997 0.793060 0.049375 0.000000 0.000000 0.000000 0.000000 0.000000 0.000000 7.611133 0.880647 0.030305 -11.470304 -1.969856 7.427050 -27.400907 1.869801 -6.289241 0.000000 0.000000 0.000000 7.611133 0.880647 0.030305 3.557352 -26.212553 4.772372 0.000000 0.000000 0.000000 -62.514167 -22.042320 -66.916046 -179.999978 -70.391165 -179.999978 0.000000 0.000000 0.000000 7.611133 0.880647 0.030305 1.205948 13.146150 10.801879 0.000000 0.000000 0.000000 -58.722674 43.168578 51.544070 179.999950 73.190586 -179.999964 0.000000 0.000000 0.000000 
0.111885 82.594528 0.095551 0.000000 0.000000 0.000000 11.839233 2.999215 -1.352611 -64.806542 0.405762 5.569047 76.153713 7.807725 -0.719748 -22.182682 4.690698 -4.710005 -0.000003 -0.000003 -0.000001 0.000000 0.000000 0.000000 11.839233 2.999215 -1.352611 -62.331671 -13.531257 -7.934196 75.014171 -8.338474 -4.612069 -25.821271 -9.046676 3.309495 -0.000003 -0.000003 -0.000000 0.000000 0.000000 0.000000 11.839233 2.999215 -1.352611 9.875715 1.534539 1.155173 7.606520 0.822609 0.040046 0.000000 0.000000 0.000000 0.000000 0.000000 0.000000 7.597280 0.910607 0.020585 -11.512456 -2.020959 7.497547 -27.383004 1.723010 -6.301877 0.000000 0.000000 0.000000 7.597280 0.910607 0.020585 3.557348 -26.212553 4.772371 0.000000 0.000000 0.000000 -62.620984 -22.195898 -67.031237 -179.999937 -70.314072 -179.999937 0.000000 0.000000 0.000000 7.597280 0.910607 0.020585 1.205922 13.106003 10.860522 0.000000 0.000000 0.000000 -58.781919 43.109101 51.531233 -179.999882 72.944467 179.999896 0.000000 0.000000 0.000000 
0.134284 82.599770 0.113682 0.000000 0.000000 0.000000 11.876744 2.970692 -1.369213 -64.824711 0.430698 5.589327 76.150769 7.795929 -0.713163 -22.207346 4.705512 -4.688778 -0.000003 -0.000006 -0.000001 0.000000 0.000000 0.000000 11.876744 2.970692 -1.369213 -62.344683 -13.532563 -7.944657 74.994009 -8.357874 -4.599734 -25.816215 -9.001998 3.334591 -0.000003 -0.000005 -0.000000 0.000000 0.000000 0.000000 11.876744 2.970692 -1.369213 9.860129 1.567080 1.139432 7.592700 0.849623 0.032109 0.000000 0.000000 0.000000 0.000000 0.000000 0.000000 7.583040 0.938221 0.012216 -11.542868 -2.042863 7.545322 -27.447230 1.677693 -6.294208 0.000000 0.000000 0.000000 7.583040 0.938221 0.012216 3.557347 -26.212550 4.772371 0.000000 0.000000 0.000000 -62.695987 -22.305537 -67.112032 179.999978 -70.240354 179.999978 0.000000 0.000000 0.000000 7.583040 0.938221 0.012216 1.207722 13.049747 10.917854 0.000000 0.000000 0.000000 -58.840358 43.111020 51.540194 179.999896 72.756172 -179.999923 0.000000 0.000000 0.000000 
0.158583 82.606544 0.133602 0.000000 0.000000 0.000000 11.899670 2.942017 -1.375792 -64.817279 0.436414 5.605870 76.145285 7.791073 -0.731893 -22.235138 4.705241 -4.670523 -0.000003 -0.000004 -0.000001 0.000000 0.000000 0.000000 11.899670 2.942017 -1.375792 -62.341589 -13.521813 -7.944018 74.973907 -8.373278 -4.600039 -25.811261 -8.975786 3.364073 -0.000003 -0.000005 -0.000000 0.000000 0.000000 0.000000 11.899670 2.942017 -1.375792 9.845129 1.589481 1.123870 7.579138 0.869097 0.024294 0.000000 0.000000 0.000000 0.000000 0.000000 0.000000 7.569102 0.958445 0.004006 -11.541544 -2.026947 7.561946 -27.520338 1.765033 -6.259366 0.000000 0.000000 0.000000 7.569102 0.958445 0.004006 3.557349 -26.212550 4.772371 0.000000 0.000000 0.000000 -62.712256 -22.301468 -67.112223 -179.999937 -70.298260 -179.999937 0.000000 0.000000 0.000000 7.569102 0.958445 0.004006 1.209564 12.989895 10.980337 0.000000 0.000000 0.000000 -58.873239 43.221297 51.547619 -179.999950 72.841352 179.999937 0.000000 0.000000 0.000000 
0.172293 82.611610 0.145096 0.000000 0.000000 0.000000 11.875469 2.930298 -1.363896 -64.766237 0.434507 5.593408 76.136918 7.798979 -0.744681 -22.252705 4.697859 -4.668468 -0.000003 -0.000007 -0.000001 0.000000 0.000000 0.000000 11.875469 2.930298 -1.363896 -62.303415 -13.501247 -7.933552 74.967665 -8.361577 -4.613984 -25.812330 -8.997488 3.378226 -0.000003 -0.000004 -0.000000 0.000000 0.000000 0.000000 11.875469 2.930298 -1.363896 9.846841 1.581335 1.124503 7.578354 0.862522 0.022663 0.000000 0.000000 0.000000 0.000000 0.000000 0.000000 7.568290 0.952671 0.002222 -11.512210 -1.989691 7.537601 -27.524587 1.896779 -6.198476 0.000000 0.000000 0.000000 7.568290 0.952671 0.002222 3.557349 -26.212550 4.772371 0.000000 0.000000 0.000000 -62.651406 -22.141638 -67.000242 -179.999896 -70.519880 -179.999909 0.000000 0.000000 0.000000 7.568290 0.952671 0.002222 1.208428 12.980026 11.008844 0.000000 0.000000 0.000000 -58.874755 43.403940 51.555586 -179.999937 73.272664 179.999937 0.000000 0.000000 0.000000 
0.183338 82.618568 0.155506 0.000000 0.000000 0.000000 11.867461 2.929342 -1.350701 -64.731868 0.447142 5.581126 76.119972 7.809485 -0.749058 -22.264386 4.678937 -4.667105 -0.000003 -0.000006 -0.000001 0.000000 0.000000 0.000000 11.867461 2.929342 -1.350701 -62.282965 -13.496257 -7.925285 74.956046 -8.347737 -4.642811 -25.812748 -9.027695 3.390120 -0.000003 -0.000004 -0.000000 0.000000 0.000000 0.000000 11.867461 2.929342 -1.350701 9.844329 1.570039 1.128932 7.574559 0.852034 0.020876 0.000000 0.000000 0.000000 0.000000 0.000000 0.000000 7.564540 0.942707 0.000372 -11.507450 -1.973317 7.511915 -27.523168 1.933517 -6.160802 0.000000 0.000000 0.000000 7.564540 0.942707 0.000372 3.557349 -26.212550 4.772371 0.000000 0.000000 0.000000 -62.601129 -22.051498 -66.935833 -179.999896 -70.661695 -179.999896 0.000000 0.000000 0.000000 7.564540 0.942707 0.000372 1.206445 12.999548 11.007919 0.000000 0.000000 0.000000 -58.848671 43.489034 51.518037 -179.999991 73.511707 -180.000005 0.000000 0.000000 0.000000 
0.192617 82.630516 0.161781 0.000000 0.000000 0.000000 11.880241 2.938421 -1.343612 -64.718214 0.476509 5.565748 76.087372 7.822953 -0.732863 -22.270061 4.653647 -4.665959 -0.000003 -0.000005 -0.000001 0.000000 0.000000 0.000000 11.880241 2.938421 -1.343612 -62.278211 -13.495371 -7.925775 74.932762 -8.335536 -4.660861 -25.806528 -9.051000 3.399068 -0.000003 -0.000005 -0.000000 0.000000 0.000000 0.000000 11.880241 2.938421 -1.343612 9.843726 1.557798 1.131918 7.571697 0.841292 0.020392 0.000000 0.000000 0.000000 0.000000 0.000000 0.000000 7.561702 0.932567 -0.000206 -11.525240 -1.977174 7.501421 -27.579167 1.894836 -6.144544 0.000000 0.000000 0.000000 7.561702 0.932567 -0.000206 3.557353 -26.212553 4.772371 0.000000 0.000000 0.000000 -62.595351 -22.062513 -66.942022 -179.999950 -70.608522 -179.999937 0.000000 0.000000 0.000000 7.561702 0.932567 -0.000206 1.204332 13.031687 10.990238 0.000000 0.000000 0.000000 -58.853192 43.452840 51.511548 179.999909 73.423017 -179.999896 0.000000 0.000000 0.000000 
